# xmcd
#
# Track frame offsets:
#	150
#	12760
#	26437
#	39550
#	53792
#	66620
#	79585
#	93667
#	106442
#	118960
#	131425
#	146412
#	160625
#	177100
#	190572
#	204840
#	218437
#	237060
#	251932
#	271682
#	284882
#	302527
#
# Disc length: 4193 seconds
#
# Revision: 1
# Processed by: cddbd v1.5PL3 Copyright (c) Steve Scherf et al.
# Submitted via: CDex 1.50Beta5
#
DISCID=2e105f16
DTITLE=Dionne Warwick - Dionne Warwick's Greatest Hits
DYEAR=1900
DGENRE=R&B
TTITLE0=Don't Make Me Over
TTITLE1=Anyone Who Had A Heart
TTITLE2=Walk On By
TTITLE3=You'll Never Get To Heaven (If You Break My Heart)
TTITLE4=Reach Out For Me
TTITLE5=Are You There (With Another Girl)
TTITLE6=Message To Michael
TTITLE7=Trains And Boats And Planes
TTITLE8=I Just Don't Know What To Do With Myself
TTITLE9=Alfie
TTITLE10=The Windows Of The World
TTITLE11=I Say A Little Prayer
TTITLE12=(Theme From)) The Valley Of The Dolls
TTITLE13=Do You Know The Way To San Jose
TTITLE14=Who Is Gonna Love Me
TTITLE15=Promises, Promises
TTITLE16=This Girl's In Love With You
TTITLE17=The April Fools
TTITLE18=You've Lost That Lovin' Feeling
TTITLE19=I'll Never Fall In Love Again
TTITLE20=Let Me Go To Hhim
TTITLE21=Make It Easy On Yourself
EXTD=
EXTT0=
EXTT1=
EXTT2=
EXTT3=
EXTT4=
EXTT5=
EXTT6=
EXTT7=
EXTT8=
EXTT9=
EXTT10=
EXTT11=
EXTT12=
EXTT13=
EXTT14=
EXTT15=
EXTT16=
EXTT17=
EXTT18=
EXTT19=
EXTT20=
EXTT21=
PLAYORDER=
